<svg width="20" height="20" viewBox="0 0 20 20" fill="none" xmlns="http://www.w3.org/2000/svg">
<path fill-rule="evenodd" clip-rule="evenodd" d="M0 20V0H20V20H0ZM4 16H7V7H4V16ZM5.5 3C5.20333 3 4.9133 3.08797 4.66663 3.25279C4.41995 3.41761 4.22773 3.65189 4.1142 3.92598C4.00067 4.20007 3.97093 4.50166 4.02881 4.79263C4.08669 5.0836 4.22955 5.35087 4.43933 5.56065C4.64911 5.77043 4.91636 5.9133 5.20734 5.97118C5.49831 6.02905 5.79995 5.99935 6.07404 5.88582C6.34812 5.77229 6.58237 5.58003 6.74719 5.33336C6.91201 5.08669 7 4.79667 7 4.5C7 4.10218 6.84197 3.72065 6.56067 3.43935C6.27936 3.15804 5.89782 3 5.5 3ZM17 11C17 8.872 16.378 7 13.737 7C13.2014 6.99669 12.6727 7.12084 12.1945 7.36218C11.7164 7.60352 11.3025 7.95514 10.987 8.388L11 7H8V16H11V11C11.1399 10.7106 11.3554 10.4644 11.6236 10.2874C11.8918 10.1103 12.2029 10.0089 12.524 9.994C12.7333 9.9886 12.9412 10.0291 13.1331 10.1127C13.3251 10.1963 13.4963 10.3209 13.6349 10.4778C13.7735 10.6347 13.8761 10.8201 13.9354 11.0209C13.9946 11.2216 14.0092 11.433 13.978 11.64L14 16H17V11Z" fill="white"/>
</svg>
