<svg width="20" height="20" viewBox="0 0 20 20" fill="none" xmlns="http://www.w3.org/2000/svg">
<path fill-rule="evenodd" clip-rule="evenodd" d="M20 0H0V20H20V0ZM8.02671 9.9378C7.94213 10.1098 7.5499 11.9004 7.36536 12.9225C7.24739 13.3796 7.16513 13.8464 7.11935 14.3182C7.03414 15.2106 7.04708 16.1107 7.15783 17C7.42054 16.8237 7.63946 16.582 7.796 16.2956C8.14216 15.677 8.42076 15.0179 8.6264 14.3313C8.76481 13.8302 9.1954 12.2041 9.1954 12.2041C9.41761 12.4743 9.68919 12.6931 9.99332 12.847C10.2975 13.0008 10.6278 13.0864 10.964 13.0986C11.4629 13.1185 11.9598 13.0194 12.4186 12.8084C12.8774 12.5975 13.2866 12.28 13.6167 11.879C14.5165 10.809 15.0078 9.41625 14.9931 7.97681C15.0265 7.34635 14.9386 6.71525 14.735 6.1226C14.5313 5.52994 14.2161 4.98833 13.8089 4.53127C13.3656 4.03418 12.8304 3.64157 12.2372 3.37857C11.644 3.11558 11.0061 2.98797 10.3642 3.00394C9.16147 2.95712 7.97702 3.32905 6.9886 4.06387C6.2063 4.68905 5.59769 5.53017 5.22783 6.49719C4.93216 7.46564 4.92407 8.50835 5.20474 9.4819C5.39379 10.1237 5.79222 10.6714 6.32734 11.0249C6.64259 11.2421 6.84257 11.052 6.86564 10.9574C6.87118 10.9346 6.88336 10.8877 6.89911 10.827C6.94896 10.6349 7.03449 10.3053 7.05787 10.1715C7.00931 9.90342 6.89214 9.655 6.71949 9.45392C6.5007 8.99364 6.40492 8.47763 6.44269 7.9628C6.50442 6.95065 6.93524 6.00496 7.64225 5.32947C8.30843 4.69527 9.17279 4.35193 10.0643 4.36748C10.5335 4.35787 10.9996 4.45312 11.4325 4.64709C11.8654 4.84107 12.2558 5.12953 12.5787 5.49406C12.9935 6.10626 13.1997 6.8521 13.1631 7.60729C13.1624 8.55497 12.9627 9.49035 12.5787 10.3443C12.4307 10.7324 12.1848 11.0689 11.8684 11.3159C11.552 11.563 11.1776 11.7109 10.7871 11.7432C10.4919 11.745 10.2078 11.6225 9.99632 11.402C9.78483 11.1815 9.66288 10.8808 9.65682 10.5648C9.72004 9.85219 9.86727 9.15097 10.0951 8.47792C10.1048 8.4356 10.118 8.384 10.1331 8.32497C10.2727 7.7791 10.5746 6.59844 9.81827 6.2561C9.64977 6.17916 9.4679 6.14157 9.28475 6.14585C9.1016 6.15014 8.92141 6.19617 8.75621 6.28091C8.59101 6.36565 8.44454 6.48711 8.3267 6.63722C8.20886 6.78733 8.12231 6.96262 8.0728 7.15139C7.88135 7.81595 7.88135 8.52682 8.0728 9.19139C8.11428 9.31234 8.13162 9.44128 8.12367 9.56984C8.11573 9.6984 8.08272 9.82376 8.02671 9.9378Z" fill="white"/>
</svg>
