<svg width="20" height="20" viewBox="0 0 20 20" fill="none" xmlns="http://www.w3.org/2000/svg">
<path fill-rule="evenodd" clip-rule="evenodd" d="M20 0H0V20H20V0ZM16.6298 13.255C16.6298 13.255 16.9219 13.3996 16.9829 13.6048C17.0323 13.7687 17.0004 14.0993 16.5325 14.3695C16.1624 14.5821 15.8545 14.6658 15.6062 14.7332C15.5942 14.7365 15.5823 14.7397 15.5705 14.7429C15.5547 14.7474 15.5392 14.7516 15.524 14.7558C15.4682 14.7712 15.4169 14.7854 15.37 14.8005C15.3308 14.8138 15.2465 14.8477 15.2087 14.8965C15.1698 14.9466 15.1587 15.0073 15.1464 15.0744C15.1449 15.0824 15.1434 15.0905 15.1419 15.0987C15.1157 15.2537 15.0591 15.4604 14.8614 15.5991C14.6604 15.7406 14.4068 15.7509 14.0852 15.764L14.0739 15.7644L14.072 15.7645C13.7308 15.7778 13.3072 15.7943 12.8213 15.9578C12.6057 16.0299 12.408 16.1526 12.1796 16.2945L12.1631 16.3047C11.6662 16.6147 11.0472 17 9.99658 17C8.94747 17 8.33283 16.6162 7.83878 16.3077C7.60339 16.1601 7.3985 16.0316 7.17328 15.9563C6.6874 15.7928 6.26378 15.7763 5.92264 15.763L5.92074 15.763L5.91987 15.7629C5.59334 15.7497 5.33642 15.7392 5.13317 15.5976C4.94864 15.4677 4.88615 15.2803 4.85855 15.1282C4.85549 15.1124 4.85279 15.0969 4.85014 15.0818C4.83773 15.0107 4.82663 14.9471 4.78589 14.8935C4.74666 14.8418 4.65512 14.8064 4.61879 14.7946C4.56067 14.7769 4.49673 14.7592 4.42553 14.74C4.17125 14.6706 3.73242 14.5437 3.37206 14.3075C3.15265 14.1628 2.93614 13.8927 3.01751 13.6048C3.07273 13.41 3.36334 13.2594 3.36334 13.2594C3.38768 13.2445 3.41101 13.2328 3.4316 13.2225C3.4356 13.2204 3.43948 13.2185 3.44326 13.2166C3.93004 12.9774 4.3616 12.6896 4.72486 12.3633C5.01693 12.1006 5.26686 11.8127 5.46738 11.5042C5.70859 11.1367 5.82338 10.8267 5.87424 10.6554C5.90475 10.5373 5.90039 10.493 5.87714 10.434C5.85535 10.3779 5.7856 10.3248 5.76526 10.31C5.6085 10.1996 5.36976 10.0417 5.21036 9.93623L5.18403 9.91881C5.16363 9.90535 5.14362 9.89217 5.12411 9.87931C5.00884 9.80335 4.91093 9.73883 4.85128 9.69591C4.62315 9.53353 4.46767 9.3682 4.37467 9.18958C4.25552 8.9593 4.24099 8.7054 4.33399 8.45593C4.46041 8.11936 4.76991 7.9186 5.16224 7.9186C5.25087 7.9186 5.34096 7.92893 5.4296 7.94812C5.65483 7.99831 5.86843 8.0795 6.04715 8.15036C6.06168 8.15626 6.07476 8.14593 6.07476 8.13117C6.05442 7.63518 6.03408 7.07866 6.08348 6.50148C6.12707 5.98039 6.23169 5.54344 6.40461 5.16111C6.57752 4.77731 6.80275 4.49388 6.97857 4.2887C7.11516 4.12927 7.41594 3.82075 7.88673 3.54766C8.51301 3.18452 9.22355 3 10.0009 3C10.7798 3 11.4918 3.18452 12.1166 3.54766C12.5612 3.80599 12.8562 4.09384 13.0233 4.2887C13.1991 4.49388 13.4244 4.77731 13.5973 5.16111C13.7687 5.54344 13.8748 5.98186 13.9184 6.50148C13.9678 7.07571 13.946 7.68094 13.9271 8.13117C13.9257 8.14593 13.9402 8.15626 13.9533 8.15036C14.132 8.0795 14.3456 7.99831 14.5708 7.94812C14.6609 7.92893 14.751 7.9186 14.8382 7.9186C15.232 7.9186 15.5415 8.11936 15.6664 8.45593C15.7594 8.7054 15.7449 8.9593 15.6258 9.18958C15.5342 9.3682 15.3773 9.53353 15.1492 9.69591C15.078 9.7461 14.9574 9.82581 14.8164 9.91881C14.6537 10.0251 14.3892 10.1993 14.225 10.3174C14.2235 10.3186 14.222 10.3199 14.2203 10.3213C14.1926 10.3447 14.1411 10.388 14.1233 10.434C14.1 10.4916 14.0957 10.5359 14.1233 10.6466C14.1727 10.8163 14.2875 11.1293 14.5331 11.5042C14.7336 11.8113 14.9835 12.1006 15.2756 12.3633C15.6388 12.6896 16.0704 12.9774 16.5572 13.2166C16.5752 13.2258 16.5968 13.2373 16.6207 13.2501L16.6298 13.255Z" fill="white"/>
</svg>
