<svg width="20" height="20" viewBox="0 0 20 20" fill="none" xmlns="http://www.w3.org/2000/svg">
<path fill-rule="evenodd" clip-rule="evenodd" d="M20 0H0V20H20V0ZM12.9858 3.41016C12.9858 4.87967 14.1576 6.07521 15.598 6.07521C15.82 6.07521 16 6.25893 16 6.48537V8.68205C16 8.9086 15.82 9.09221 15.598 9.09221C14.6763 9.09221 13.7858 8.86502 12.9858 8.42976V12.4163C12.9858 14.9438 10.9702 17 8.49283 17C6.01546 17 4 14.9438 4 12.4163C4 9.88881 6.01546 7.83247 8.49283 7.83247C8.71488 7.83247 8.89485 8.01619 8.89485 8.24263V10.4393C8.89485 10.6659 8.71488 10.8495 8.49283 10.8495C7.64607 10.8495 6.95718 11.5523 6.95718 12.4163C6.95718 13.2802 7.64607 13.983 8.49283 13.983C9.33959 13.983 10.0286 13.2802 10.0286 12.4163V3.41016C10.0286 3.18361 10.2087 3 10.4306 3H12.5837C12.8058 3 12.9858 3.18361 12.9858 3.41016Z" fill="white"/>
</svg>
