<svg width="20" height="20" viewBox="0 0 20 20" fill="none" xmlns="http://www.w3.org/2000/svg">
<path fill-rule="evenodd" clip-rule="evenodd" d="M20 0H0V20H20V0ZM7.84758 6.25177C7.72758 5.98777 6.89764 4.54073 6.52764 3.94073C5.90764 2.96373 5.46756 2.96373 5.07756 3.06573C4.5175 3.20211 4.00773 3.49486 3.60759 3.90979C3.38326 4.16981 3.22668 4.48122 3.15166 4.81635C3.07665 5.15147 3.08559 5.4999 3.17766 5.83075C3.45293 7.08402 3.92899 8.28451 4.58757 9.38574C5.25813 10.3085 6.004 11.1742 6.81755 11.9738C7.70753 12.9129 8.68537 13.7648 9.7376 14.5178C10.7291 15.1813 11.829 15.6663 12.9876 15.9507C13.3941 16.0349 13.8151 16.0171 14.2129 15.8987C14.6108 15.7804 14.9732 15.5654 15.2676 15.2728C15.6292 14.9012 15.9025 14.4532 16.0676 13.9617C16.2447 13.4786 15.8894 13.2046 15.4111 12.8359L15.3876 12.8177C14.6034 12.2666 13.785 11.7656 12.9375 11.3177C12.7667 11.1864 12.5529 11.1238 12.3382 11.1423C12.1235 11.1608 11.9235 11.2591 11.7776 11.4178C11.685 11.5104 11.5945 11.6415 11.4922 11.7895C11.3737 11.9612 11.2393 12.1557 11.0676 12.3398C10.7476 12.6828 9.50758 12.3728 7.96758 10.8398C6.42758 9.30678 6.55756 8.27378 6.69756 8.00677C6.97641 7.74645 7.28139 7.51554 7.60759 7.31775C7.7753 7.20361 7.89336 7.03 7.93792 6.83209C7.98247 6.63418 7.95019 6.42677 7.84758 6.25177ZM9.6176 3.01776V4.09973C11.0546 4.1 12.4328 4.67087 13.4491 5.68683C14.4655 6.70279 15.0369 8.08072 15.0376 9.51776H16.1176C16.1176 7.79385 15.4328 6.14056 14.2138 4.92157C12.9948 3.70258 11.3415 3.01776 9.6176 3.01776ZM12.8676 9.51678H13.9476V9.51776C13.9478 8.94887 13.836 8.38549 13.6186 7.8598C13.4011 7.33412 13.0823 6.85643 12.6802 6.45398C12.2781 6.05153 11.8007 5.73223 11.2752 5.51428C10.7497 5.29634 10.1865 5.18404 9.6176 5.18378V6.26678C10.4793 6.26758 11.3055 6.61022 11.9148 7.21954C12.5242 7.82886 12.8668 8.65508 12.8676 9.51678Z" fill="white"/>
</svg>
