<svg width="20" height="20" viewBox="0 0 20 20" fill="none" xmlns="http://www.w3.org/2000/svg">
<path fill-rule="evenodd" clip-rule="evenodd" d="M20 0H0V20H20V0ZM6.27613 15.906C7.38878 16.6172 8.68042 16.9966 10.0003 17C11.5497 17.0028 13.0562 16.4895 14.2827 15.5409C15.5092 14.5923 16.3861 13.2622 16.7756 11.7597C17.1651 10.2572 17.0451 8.66761 16.4344 7.24095C15.8237 5.81429 14.757 4.63151 13.402 3.87857C12.047 3.12562 10.4805 2.84528 8.94909 3.0816C7.41767 3.31792 6.0082 4.05751 4.94216 5.18405C3.87613 6.31059 3.21404 7.76017 3.06016 9.30482C2.90628 10.8495 3.26933 12.4015 4.09208 13.7169L3 17L6.27613 15.906ZM12.9404 11.4232C12.4609 11.3249 11.9873 11.2 11.5217 11.0491V11.0426C11.4886 11.0297 11.4532 11.0236 11.4178 11.0247C11.3823 11.0258 11.3473 11.0341 11.3151 11.049C11.2829 11.0639 11.2539 11.0852 11.2301 11.1116C11.2063 11.1379 11.188 11.1689 11.1763 11.2025C11.1306 11.262 11.0954 11.3117 11.0621 11.3586C11.041 11.3884 11.0207 11.4171 10.9989 11.4465C10.9795 11.4896 10.9516 11.5281 10.9165 11.5598C10.8815 11.5914 10.8403 11.6153 10.7955 11.6302C10.7508 11.645 10.7035 11.6505 10.6565 11.6461C10.6096 11.6416 10.5642 11.6275 10.523 11.6046C10.0627 11.3685 9.6409 11.0636 9.27221 10.7004C8.91032 10.3305 8.60524 9.90882 8.36687 9.44921C8.34358 9.40804 8.32916 9.36247 8.3246 9.31537C8.32004 9.26828 8.32547 9.22071 8.34044 9.17583C8.3554 9.13095 8.37964 9.08974 8.41153 9.05484C8.44343 9.01994 8.48228 8.99216 8.52558 8.97328C8.54916 8.95586 8.57275 8.93871 8.59692 8.92114C8.64928 8.88307 8.70441 8.84299 8.76827 8.79373L8.77614 8.78782C8.91989 8.67988 8.98188 8.63333 8.92687 8.44964C8.78686 8.0008 8.68416 7.60058 8.54416 7.04702C8.5298 6.94477 8.47566 6.85236 8.39342 6.79013C8.31118 6.7279 8.20759 6.7009 8.1055 6.71503H7.8349C7.73921 6.70703 7.64295 6.72302 7.55496 6.76154C7.46697 6.80006 7.38999 6.85994 7.33084 6.93573C7.09871 7.1655 6.91192 7.43707 6.78019 7.73617C6.72695 8.17851 6.7649 8.62705 6.89173 9.05409C7.01857 9.48114 7.23151 9.87755 7.51747 10.2188C7.81548 10.6573 8.15297 11.0677 8.52558 11.4447C8.89997 11.8184 9.30937 12.1549 9.74824 12.4499C10.0886 12.7387 10.4847 12.9542 10.9119 13.0829C11.339 13.2116 11.7881 13.2508 12.231 13.198C12.5313 13.0662 12.8037 12.8783 13.0337 12.6444C13.1079 12.5832 13.1668 12.5055 13.2056 12.4176C13.2445 12.3296 13.2623 12.2337 13.2577 12.1376V11.8683C13.267 11.8181 13.2662 11.7665 13.2552 11.7167C13.2442 11.6668 13.2232 11.6196 13.1936 11.5781C13.1639 11.5365 13.1262 11.5014 13.0827 11.4748C13.0392 11.4482 12.9908 11.4306 12.9404 11.4232Z" fill="white"/>
</svg>
