<svg width="20" height="20" viewBox="0 0 20 20" fill="none" xmlns="http://www.w3.org/2000/svg">
<path fill-rule="evenodd" clip-rule="evenodd" d="M20 0H0V20H20V0ZM3.97577 3.97591C4.96537 3.00952 6.89327 3.00026 9.67558 3C9.58538 5.98907 9.51051 7.35588 8.44606 8.44601C7.35593 9.51053 5.98911 9.58537 3.00018 9.67557C3.00018 6.98375 3.00944 4.9653 3.97577 3.97591ZM3 10.3247C3 13.0165 3.00926 15.0349 3.97558 16.0243C4.96519 16.991 6.89309 17 9.6754 17C9.5852 14.0112 9.51033 12.6444 8.44588 11.5542C7.35575 10.4897 5.98893 10.4149 3 10.3247ZM11.5542 11.5542C10.4897 12.6444 10.4148 14.0112 10.3246 17C13.107 17 15.0346 16.991 16.0242 16.0243C16.9905 15.0349 16.9997 13.0165 17 10.3247C14.0111 10.4149 12.6443 10.4897 11.5542 11.5542ZM11.5541 8.44601C10.4897 7.35588 10.4148 5.98907 10.3246 3C13.1069 3.00026 15.0345 3.00952 16.0241 3.97591C16.9905 4.9653 16.9997 6.98375 17 9.67557C14.0111 9.58537 12.6442 9.51053 11.5541 8.44601Z" fill="white"/>
</svg>
