<svg width="48" height="78" viewBox="0 0 48 78" fill="none" xmlns="http://www.w3.org/2000/svg">
<path fill-rule="evenodd" clip-rule="evenodd" d="M14 13H12V16H4V13H2C1.46957 13 0.960888 12.7893 0.585815 12.4142C0.210743 12.0391 0 11.5304 0 11V6C0 5.46957 0.210743 4.96086 0.585815 4.58578C0.960888 4.21071 1.46957 4 2 4H4V0H12V4H14C14.5304 4 15.0391 4.21071 15.4142 4.58578C15.7893 4.96086 16 5.46957 16 6V11C16 11.5304 15.7893 12.0391 15.4142 12.4142C15.0391 12.7893 14.5304 13 14 13ZM6 14H10V10H6V14ZM10 2H6V4H10V2ZM14 6H2V11H4V8H12V11H14V6Z" fill="#292929"/>
<path fill-rule="evenodd" clip-rule="evenodd" d="M46 13H44V16H36V13H34C33.4696 13 32.9609 12.7893 32.5858 12.4142C32.2107 12.0391 32 11.5304 32 11V6C32 5.46957 32.2107 4.96086 32.5858 4.58578C32.9609 4.21071 33.4696 4 34 4H36V0H44V4H46C46.5304 4 47.0391 4.21071 47.4142 4.58578C47.7893 4.96086 48 5.46957 48 6V11C48 11.5304 47.7893 12.0391 47.4142 12.4142C47.0391 12.7893 46.5304 13 46 13ZM38 14H42V10H38V14ZM42 2H38V4H42V2ZM46 6H34V11H36V8H44V11H46V6Z" fill="white"/>
<path fill-rule="evenodd" clip-rule="evenodd" d="M12.0125 38C11.3401 37.9979 10.6884 37.7673 10.1645 37.346L6.90046 39.231C7.05311 39.7378 7.05311 40.2782 6.90046 40.785L10.1555 42.665C10.6877 42.2472 11.3459 42.0225 12.0225 42.0274C12.699 42.0324 13.3539 42.2669 13.8798 42.6925C14.4058 43.118 14.7718 43.7095 14.9179 44.3701C15.064 45.0307 14.9816 45.7214 14.6841 46.3291C14.3867 46.9368 13.8918 47.4255 13.2804 47.7153C12.6691 48.0052 11.9774 48.0789 11.3187 47.9246C10.66 47.7702 10.0731 47.3968 9.65417 46.8656C9.23522 46.3343 9.00898 45.6766 9.01246 45C9.01335 44.7844 9.0375 44.5694 9.08447 44.359L5.75346 42.435C5.30483 42.7582 4.7756 42.9511 4.22424 42.9924C3.67287 43.0337 3.12082 42.9219 2.62902 42.6692C2.13723 42.4165 1.72483 42.0329 1.43736 41.5605C1.14989 41.0882 0.998531 40.5457 1.00001 39.9928C1.00149 39.4399 1.15574 38.8981 1.44574 38.4273C1.73573 37.9566 2.15018 37.5751 2.64332 37.3251C3.13646 37.075 3.68911 36.9661 4.24025 37.0104C4.79138 37.0547 5.31956 37.2504 5.76646 37.576L9.08946 35.657C8.95329 35.0503 9.00899 34.4163 9.24884 33.8427C9.48869 33.2691 9.90084 32.7842 10.4283 32.455C10.9558 32.1258 11.5725 31.9686 12.1932 32.0052C12.8139 32.0418 13.4078 32.2703 13.893 32.6592C14.3781 33.0481 14.7304 33.5781 14.9012 34.1759C15.072 34.7737 15.0528 35.4099 14.8464 35.9963C14.6399 36.5828 14.2562 37.0906 13.7486 37.4496C13.2409 37.8085 12.6342 38.0009 12.0125 38ZM12.0125 46.187C12.2475 46.187 12.4772 46.1173 12.6726 45.9867C12.868 45.8561 13.0202 45.6705 13.1101 45.4534C13.2 45.2363 13.2235 44.9973 13.1776 44.7669C13.1316 44.5364 13.0184 44.3247 12.8522 44.1586C12.6859 43.9925 12.4741 43.8794 12.2436 43.8337C12.0131 43.788 11.7742 43.8116 11.5571 43.9017C11.3401 43.9918 11.1546 44.1442 11.0242 44.3397C10.8938 44.5352 10.8243 44.765 10.8245 45C10.8243 45.156 10.855 45.3105 10.9146 45.4546C10.9743 45.5988 11.0618 45.7297 11.1722 45.84C11.2825 45.9502 11.4136 46.0376 11.5577 46.0972C11.7019 46.1567 11.8565 46.1873 12.0125 46.187V46.187ZM4.01246 38.812C3.77746 38.8118 3.54767 38.8813 3.35217 39.0117C3.15667 39.1421 3.00425 39.3276 2.91418 39.5447C2.82411 39.7617 2.80045 40.0006 2.84617 40.2312C2.8919 40.4617 3.00496 40.6734 3.17106 40.8397C3.33717 41.0059 3.54885 41.1192 3.77932 41.1651C4.0098 41.211 4.24872 41.1876 4.46586 41.0977C4.683 41.0078 4.86859 40.8555 4.99917 40.6601C5.12975 40.4647 5.19946 40.235 5.19946 40C5.19946 39.6851 5.07444 39.3831 4.85186 39.1603C4.62929 38.9375 4.32737 38.8123 4.01246 38.812V38.812ZM12.0125 33.812C11.7775 33.8118 11.5477 33.8813 11.3522 34.0117C11.1567 34.1421 11.0043 34.3276 10.9142 34.5447C10.8241 34.7617 10.8004 35.0006 10.8462 35.2312C10.8919 35.4617 11.005 35.6734 11.1711 35.8397C11.3372 36.0059 11.5488 36.1192 11.7793 36.1651C12.0098 36.211 12.2487 36.1876 12.4659 36.0977C12.683 36.0078 12.8686 35.8555 12.9992 35.6601C13.1298 35.4647 13.1995 35.235 13.1995 35C13.1995 34.6851 13.0744 34.3831 12.8519 34.1603C12.6293 33.9375 12.3274 33.8123 12.0125 33.812V33.812Z" fill="#222222"/>
<path fill-rule="evenodd" clip-rule="evenodd" d="M44.0125 38C43.3401 37.9979 42.6884 37.7673 42.1645 37.346L38.9005 39.231C39.0531 39.7378 39.0531 40.2782 38.9005 40.785L42.1555 42.665C42.6877 42.2472 43.3459 42.0225 44.0225 42.0274C44.699 42.0324 45.3539 42.2669 45.8798 42.6925C46.4058 43.118 46.7718 43.7095 46.9179 44.3701C47.064 45.0307 46.9816 45.7214 46.6841 46.3291C46.3867 46.9368 45.8918 47.4255 45.2804 47.7153C44.6691 48.0052 43.9774 48.0789 43.3187 47.9246C42.66 47.7702 42.0731 47.3968 41.6542 46.8656C41.2352 46.3343 41.009 45.6766 41.0125 45C41.0134 44.7844 41.0375 44.5694 41.0845 44.359L37.7535 42.435C37.3048 42.7582 36.7756 42.9511 36.2242 42.9924C35.6729 43.0337 35.1208 42.9219 34.629 42.6692C34.1372 42.4165 33.7248 42.0329 33.4374 41.5605C33.1499 41.0882 32.9985 40.5457 33 39.9928C33.0015 39.4399 33.1557 38.8981 33.4457 38.4273C33.7357 37.9566 34.1502 37.5751 34.6433 37.3251C35.1365 37.075 35.6891 36.9661 36.2402 37.0104C36.7914 37.0547 37.3196 37.2504 37.7665 37.576L41.0895 35.657C40.9533 35.0503 41.009 34.4163 41.2488 33.8427C41.4887 33.2691 41.9008 32.7842 42.4283 32.455C42.9558 32.1258 43.5725 31.9686 44.1932 32.0052C44.8139 32.0418 45.4078 32.2703 45.893 32.6592C46.3781 33.0481 46.7304 33.5781 46.9012 34.1759C47.072 34.7737 47.0528 35.4099 46.8464 35.9963C46.6399 36.5828 46.2562 37.0906 45.7486 37.4496C45.2409 37.8085 44.6342 38.0009 44.0125 38ZM44.0125 46.187C44.2475 46.187 44.4772 46.1173 44.6726 45.9867C44.868 45.8561 45.0202 45.6705 45.1101 45.4534C45.2 45.2363 45.2235 44.9973 45.1776 44.7669C45.1316 44.5364 45.0184 44.3247 44.8522 44.1586C44.6859 43.9925 44.4741 43.8794 44.2436 43.8337C44.0131 43.788 43.7742 43.8116 43.5571 43.9017C43.3401 43.9918 43.1546 44.1442 43.0242 44.3397C42.8938 44.5352 42.8243 44.765 42.8245 45C42.8243 45.156 42.855 45.3105 42.9146 45.4546C42.9743 45.5988 43.0618 45.7297 43.1722 45.84C43.2825 45.9502 43.4136 46.0376 43.5577 46.0972C43.7019 46.1567 43.8565 46.1873 44.0125 46.187V46.187ZM36.0125 38.812C35.7775 38.8118 35.5477 38.8813 35.3522 39.0117C35.1567 39.1421 35.0043 39.3276 34.9142 39.5447C34.8241 39.7617 34.8004 40.0006 34.8462 40.2312C34.8919 40.4617 35.005 40.6734 35.1711 40.8397C35.3372 41.0059 35.5488 41.1192 35.7793 41.1651C36.0098 41.211 36.2487 41.1876 36.4659 41.0977C36.683 41.0078 36.8686 40.8555 36.9992 40.6601C37.1298 40.4647 37.1995 40.235 37.1995 40C37.1995 39.6851 37.0744 39.3831 36.8519 39.1603C36.6293 38.9375 36.3274 38.8123 36.0125 38.812V38.812ZM44.0125 33.812C43.7775 33.8118 43.5477 33.8813 43.3522 34.0117C43.1567 34.1421 43.0043 34.3276 42.9142 34.5447C42.8241 34.7617 42.8004 35.0006 42.8462 35.2312C42.8919 35.4617 43.005 35.6734 43.1711 35.8397C43.3372 36.0059 43.5488 36.1192 43.7793 36.1651C44.0098 36.211 44.2487 36.1876 44.4659 36.0977C44.683 36.0078 44.8686 35.8555 44.9992 35.6601C45.1298 35.4647 45.1995 35.235 45.1995 35C45.1995 34.6851 45.0744 34.3831 44.8519 34.1603C44.6293 33.9375 44.3274 33.8123 44.0125 33.812V33.812Z" fill="white"/>
<path fill-rule="evenodd" clip-rule="evenodd" d="M1 65C1 64.4477 1.44772 64 2 64C5.44782 64 8.75442 65.3696 11.1924 67.8076C13.6304 70.2456 15 73.5522 15 77C15 77.5523 14.5523 78 14 78C13.4477 78 13 77.5523 13 77C13 74.0826 11.8411 71.2847 9.77818 69.2218C7.71528 67.1589 4.91738 66 2 66C1.44772 66 1 65.5523 1 65Z" fill="#222222"/>
<path fill-rule="evenodd" clip-rule="evenodd" d="M1 70C1 69.4477 1.44772 69 2 69C4.12173 69 6.15656 69.8428 7.65685 71.3431C9.15715 72.8434 10 74.8783 10 77C10 77.5523 9.55228 78 9 78C8.44772 78 8 77.5523 8 77C8 75.4087 7.36786 73.8826 6.24264 72.7574C5.11742 71.6321 3.5913 71 2 71C1.44772 71 1 70.5523 1 70Z" fill="#222222"/>
<path d="M3 78C4.10457 78 5 77.1046 5 76C5 74.8954 4.10457 74 3 74C1.89543 74 1 74.8954 1 76C1 77.1046 1.89543 78 3 78Z" fill="#222222"/>
<path fill-rule="evenodd" clip-rule="evenodd" d="M32 65C32 64.4477 32.4477 64 33 64C36.4478 64 39.7544 65.3696 42.1924 67.8076C44.6304 70.2456 46 73.5522 46 77C46 77.5523 45.5523 78 45 78C44.4477 78 44 77.5523 44 77C44 74.0826 42.8411 71.2847 40.7782 69.2218C38.7153 67.1589 35.9174 66 33 66C32.4477 66 32 65.5523 32 65Z" fill="white"/>
<path fill-rule="evenodd" clip-rule="evenodd" d="M32 70C32 69.4477 32.4477 69 33 69C35.1217 69 37.1566 69.8428 38.6569 71.3431C40.1571 72.8434 41 74.8783 41 77C41 77.5523 40.5523 78 40 78C39.4477 78 39 77.5523 39 77C39 75.4087 38.3679 73.8826 37.2426 72.7574C36.1174 71.6321 34.5913 71 33 71C32.4477 71 32 70.5523 32 70Z" fill="white"/>
<path d="M34 78C35.1046 78 36 77.1046 36 76C36 74.8954 35.1046 74 34 74C32.8954 74 32 74.8954 32 76C32 77.1046 32.8954 78 34 78Z" fill="white"/>
</svg>
