<svg width="547" height="22" viewBox="0 0 547 22" fill="none" xmlns="http://www.w3.org/2000/svg">
<path fill-rule="evenodd" clip-rule="evenodd" d="M191.003 1C192.365 0.998908 193.708 1.31168 194.928 1.914C195.114 2.00267 195.3 2.10065 195.486 2.20798L194.662 2.95099L193.423 1.663L191.33 3.53699L190.089 2.17499L186.188 5.70301L188.688 8.47L187.706 9.33698L190.166 12.108L189.19 12.973L192.705 16.906L194.792 14.975L196.592 17.043C196.22 17.335 195.825 17.5984 195.412 17.831C194.071 18.6017 192.551 19.0072 191.003 19.007C188.616 19.007 186.326 18.0584 184.637 16.3699C182.949 14.6815 182 12.3914 182 10.0035C182 7.61561 182.949 5.32554 184.637 3.63706C186.326 1.94857 188.616 1 191.003 1ZM189.37 9.435L191.5 7.50699L193.419 9.64798L191.289 11.575L189.37 9.435ZM190.885 13.135L193.015 11.206L194.934 13.347L192.803 15.276L190.885 13.135ZM187.846 5.77899L189.977 3.85099L191.895 5.99198L189.764 7.91898L187.846 5.77899ZM191.755 4.741L193.355 3.29599L194.793 4.901L193.193 6.34799L191.754 4.741H191.755ZM194.594 11.363L196.194 9.917L197.632 11.523L196.033 12.968L194.594 11.363ZM195.994 14.606L197.594 13.16L199.033 14.766L197.434 16.211L195.994 14.606ZM196.638 7.17398L197.703 6.20999L198.662 7.28L197.597 8.24298L196.638 7.17398ZM195.277 3.99198L196.342 3.02899L197.301 4.099L196.236 5.06299L195.277 3.99198ZM197.999 10.353L199.065 9.38898L200.03 10.46L198.965 11.424L198.007 10.353H197.999ZM193.223 7.97L194.823 6.52399L196.262 8.129L194.662 9.57599L193.223 7.97Z" fill="#0083DE"/>
<path fill-rule="evenodd" clip-rule="evenodd" d="M238.587 15.4063C238.445 14.6755 238.065 14.0123 237.507 13.5204C237.313 13.3326 237.093 13.1739 236.854 13.0493C236.732 12.9784 236.604 12.9182 236.472 12.8694C236.131 12.7232 235.76 12.6621 235.391 12.6913C235.679 12.5875 235.986 12.5486 236.291 12.5773C236.55 12.6142 236.806 12.6745 237.055 12.7574C237.255 12.8684 237.462 12.9804 237.663 13.0944C238.109 11.5163 238.022 9.83506 237.416 8.31134C236.927 7.01782 236.131 5.86217 235.098 4.94336C234.049 3.96242 232.747 3.29367 231.339 3.01236C230.52 2.8536 229.678 2.8614 228.862 3.03534C228.171 3.216 227.521 3.52802 226.949 3.95434C226.418 4.37997 225.968 4.89755 225.621 5.48236C225.518 5.62411 225.428 5.77429 225.351 5.93133C225.282 6.10134 225.204 6.26435 225.126 6.42535C224.696 7.58691 224.559 8.83623 224.726 10.0634C224.825 10.8289 225.029 11.577 225.334 12.2863C225.498 12.6013 225.647 12.9313 225.828 13.2283C226.008 13.5163 226.203 13.794 226.414 14.0603C226.862 14.5601 227.368 15.0049 227.922 15.3853C229.189 16.2435 230.67 16.733 232.199 16.7993C232.2 16.6909 232.177 16.5835 232.131 16.4854C232.104 16.3774 232.094 16.2533 232.063 16.1483C232.034 15.8948 232.034 15.6389 232.063 15.3853C232.116 15.4246 232.155 15.4795 232.176 15.5424C232.202 15.5958 232.24 15.6419 232.289 15.6764C232.347 15.7862 232.414 15.8915 232.489 15.9913C232.638 16.1851 232.812 16.3586 233.007 16.5074C233.394 16.8247 233.826 17.0819 234.29 17.2704C234.813 17.49 235.368 17.6251 235.934 17.6703C236.534 17.7513 237.115 17.8533 237.666 17.9843C238.168 18.1291 238.652 18.3325 239.107 18.5903C239.325 18.7103 239.535 18.8439 239.737 18.9904C239.842 19.0543 239.941 19.1298 240.03 19.2153C240.148 19.2623 240.2 19.3743 240.322 19.4153C240.679 19.7414 241.011 20.0944 241.314 20.4713C241.458 20.6783 241.586 20.8963 241.696 21.1234C241.778 21.2134 241.802 21.3614 241.876 21.4604C241.907 21.5187 241.924 21.5831 241.928 21.649C241.932 21.7149 241.922 21.7808 241.898 21.8423C241.731 21.8663 241.765 21.6903 241.698 21.6173C241.635 21.5341 241.582 21.4438 241.54 21.3484C241.276 21.0714 241.04 20.7683 240.752 20.5173C240.474 20.2567 240.173 20.0224 239.852 19.8174C239.183 19.3506 238.436 19.0081 237.646 18.8063C236.716 18.5517 235.749 18.4603 234.788 18.5363C234.336 18.5867 233.89 18.6846 233.459 18.8283C233.006 18.9284 232.547 19.0035 232.086 19.0533C230.277 19.1458 228.471 18.8072 226.819 18.0653C226.104 17.7487 225.437 17.3329 224.838 16.8304C224.537 16.5946 224.258 16.3315 224.006 16.0443C223.747 15.7631 223.521 15.4542 223.33 15.1234C223.112 14.7923 222.917 14.4472 222.745 14.0903C222.583 13.7034 222.447 13.3058 222.34 12.9004C222.198 12.4633 222.107 12.0113 222.07 11.5533C222.062 11.4183 222.001 11.1584 222.002 10.9474C222.012 10.9256 222.02 10.9028 222.025 10.8793C221.992 10.6636 221.992 10.4441 222.025 10.2283C222.028 9.75249 222.08 9.27829 222.182 8.81335C222.261 8.38583 222.374 7.96521 222.52 7.55536C222.654 7.15536 222.831 6.78935 222.992 6.41135C223.101 6.24935 223.183 6.06235 223.285 5.89535C223.371 5.71835 223.5 5.58535 223.578 5.39535C223.643 5.32473 223.703 5.2499 223.758 5.17136C223.793 5.07136 223.886 5.02935 223.915 4.92435C223.989 4.86172 224.05 4.7853 224.095 4.69934C224.17 4.63811 224.231 4.5618 224.275 4.47534C224.544 4.21134 224.784 3.91936 225.063 3.66736C225.342 3.41536 225.654 3.17836 225.942 2.92636C226.124 2.83936 226.256 2.70136 226.436 2.61136C226.573 2.48636 226.773 2.42333 226.909 2.29733C227.266 2.10554 227.633 1.93296 228.009 1.78033C228.388 1.61037 228.78 1.468 229.18 1.35434C230.095 1.10203 231.044 0.988433 231.993 1.01733C232.032 1.01733 232.051 0.978333 232.06 1.01733C233.771 1.04312 235.438 1.56411 236.86 2.51733C238.115 3.3527 239.125 4.50771 239.786 5.86334C240.563 7.49013 240.823 9.3164 240.529 11.0953C240.336 12.3115 239.891 13.474 239.223 14.5083C239.134 14.6757 239.028 14.8339 238.908 14.9803C238.867 15.0623 238.814 15.1377 238.751 15.2043C238.723 15.244 238.693 15.2817 238.661 15.3174C238.657 15.328 238.652 15.3376 238.644 15.3454C238.636 15.3533 238.626 15.3591 238.616 15.3623C238.616 15.4233 238.594 15.4313 238.587 15.4063ZM238.048 15.9913C237.826 15.828 237.673 15.5876 237.619 15.3174C237.589 15.2148 237.589 15.1059 237.619 15.0034C237.632 14.9931 237.648 14.9854 237.664 14.9803C237.702 14.9701 237.742 14.9688 237.782 14.9766C237.821 14.9844 237.857 15.0011 237.889 15.0254C238.02 15.1894 238.113 15.3812 238.16 15.5863C238.183 15.6574 238.185 15.7337 238.165 15.8057C238.145 15.8778 238.104 15.9423 238.048 15.9913ZM236.067 15.6093C236.067 15.5843 236.089 15.5963 236.089 15.6093C236.267 15.6278 236.431 15.716 236.545 15.8548C236.659 15.9935 236.714 16.1716 236.697 16.3503C236.688 16.4532 236.645 16.5504 236.576 16.6272C236.507 16.7041 236.415 16.7564 236.314 16.7763C236.195 16.781 236.077 16.755 235.971 16.7008C235.865 16.6465 235.775 16.5659 235.709 16.4667C235.644 16.3675 235.605 16.253 235.596 16.1344C235.588 16.0157 235.61 15.8969 235.661 15.7893C235.708 15.7274 235.77 15.6785 235.841 15.647C235.912 15.6155 235.989 15.6025 236.067 15.6093Z" fill="#F78300"/>
<path fill-rule="evenodd" clip-rule="evenodd" d="M118.143 16C118.143 16 117.913 14.6 117.836 14.248H114.518C114.426 14.523 113.967 16 113.967 16H111.26L115.099 6.844C115.194 6.57177 115.38 6.34019 115.624 6.18747C115.869 6.03476 116.159 5.97004 116.445 6.004H118.445L120.545 16.004H118.145L118.143 16ZM116.812 9.55899L116.628 8.70499C116.506 9.08599 116.276 9.68199 116.292 9.66599C116.292 9.66599 115.466 11.878 115.267 12.458H117.408C117.301 11.955 116.812 9.55899 116.812 9.55899ZM111.244 8.30899C110.639 8.03594 109.98 7.90527 109.317 7.92701C108.292 7.92701 107.833 8.35401 107.817 8.78101C107.817 9.25501 108.368 9.559 109.285 10.017C110.769 10.717 111.457 11.589 111.442 12.733C111.427 14.792 109.668 16.133 106.942 16.133C105.959 16.1358 104.984 15.955 104.067 15.6L104.418 13.357L104.77 13.525C105.521 13.8945 106.35 14.0776 107.187 14.059C107.522 14.1244 107.87 14.0599 108.16 13.8785C108.45 13.6971 108.659 13.4124 108.747 13.082C108.747 12.64 108.411 12.319 107.401 11.831C106.422 11.359 105.122 10.566 105.137 9.13102C105.153 7.19402 106.942 5.831 109.497 5.831C110.29 5.82674 111.078 5.96599 111.822 6.24201L111.47 8.409L111.244 8.30899ZM99.864 16L101.486 6H104.071L102.45 16H99.864ZM93.639 16L91.334 7.32901C91.256 7.28301 91.173 7.24099 91.092 7.19699H92.635L93.205 7.59699L94.251 9.19699L94.695 10.423L94.895 11.436L95.171 12.809L97.708 6H100.446L96.377 16H93.635H93.639Z" fill="#1470B0"/>
<path fill-rule="evenodd" clip-rule="evenodd" d="M92.47 8.49399C92.1587 8.25 91.8237 8.03794 91.47 7.86099L91.323 7.30701C90.5927 6.87718 89.8126 6.53832 89 6.298V5.98801H92.971C93.2091 5.98859 93.4397 6.0708 93.6244 6.22095C93.8092 6.3711 93.9368 6.58008 93.986 6.81299L94.846 11.22C94.2128 10.1843 93.4096 9.26266 92.47 8.49399Z" fill="#FFB927"/>
<path fill-rule="evenodd" clip-rule="evenodd" d="M317.809 14.2779L315.789 15.0119C315.724 15.0341 315.653 15.0305 315.591 15.0018C315.529 14.9731 315.481 14.9215 315.456 14.8579L314.409 12.0259H309.509L308.465 14.8519C308.44 14.9157 308.392 14.9675 308.33 14.9964C308.268 15.0253 308.197 15.029 308.133 15.0069L306.116 14.2729C306.084 14.2629 306.054 14.2467 306.029 14.2252C306.004 14.2036 305.983 14.1772 305.968 14.1474C305.953 14.1177 305.944 14.0852 305.942 14.052C305.939 14.0187 305.944 13.9854 305.955 13.9539L310.033 3.25388C310.197 2.88094 310.466 2.56383 310.807 2.34119C311.148 2.11855 311.547 2 311.955 2C312.362 2 312.761 2.11855 313.102 2.34119C313.443 2.56383 313.712 2.88094 313.877 3.25388L317.97 13.9599C317.98 13.9913 317.985 14.0246 317.983 14.0578C317.98 14.0909 317.972 14.1233 317.956 14.153C317.941 14.1827 317.921 14.209 317.895 14.2305C317.87 14.2519 317.84 14.2681 317.809 14.2779ZM312.279 5.95389L311.958 5.05389V5.04688L310.113 10.0099H313.805L312.279 5.95389ZM305.954 17.0099H317.986C318.241 17.018 318.484 17.1253 318.662 17.3091C318.84 17.4928 318.939 17.7386 318.939 17.9944C318.939 18.2502 318.84 18.496 318.662 18.6797C318.484 18.8635 318.241 18.9707 317.986 18.9789H305.954C305.698 18.9707 305.455 18.8635 305.277 18.6797C305.099 18.496 305 18.2502 305 17.9944C305 17.7386 305.099 17.4928 305.277 17.3091C305.455 17.1253 305.698 17.018 305.954 17.0099Z" fill="#F04132"/>
<path fill-rule="evenodd" clip-rule="evenodd" d="M11 0C11.2652 0 11.5196 0.105371 11.7071 0.292908C11.8946 0.480444 12 0.734784 12 1V7C12 7.26522 11.8946 7.51956 11.7071 7.70709C11.5196 7.89463 11.2652 8 11 8C10.7348 8 10.4804 7.89463 10.2929 7.70709C10.1054 7.51956 10 7.26522 10 7V1C10 0.734784 10.1054 0.480444 10.2929 0.292908C10.4804 0.105371 10.7348 0 11 0ZM14 2C14.2652 2 14.5196 2.10537 14.7071 2.29291C14.8946 2.48044 15 2.73478 15 3V9C15 9.26522 14.8946 9.51956 14.7071 9.70709C14.5196 9.89463 14.2652 10 14 10C13.7348 10 13.4804 9.89463 13.2929 9.70709C13.1054 9.51956 13 9.26522 13 9V3C13 2.73478 13.1054 2.48044 13.2929 2.29291C13.4804 2.10537 13.7348 2 14 2ZM8 2C8.26522 2 8.51957 2.10537 8.70711 2.29291C8.89464 2.48044 9 2.73478 9 3V8C9 8.26522 8.89464 8.51956 8.70711 8.70709C8.51957 8.89463 8.26522 9 8 9C7.73478 9 7.48043 8.89463 7.29289 8.70709C7.10536 8.51956 7 8.26522 7 8V3C7 2.73478 7.10536 2.48044 7.29289 2.29291C7.48043 2.10537 7.73478 2 8 2ZM5 4C5.26522 4 5.51957 4.10537 5.70711 4.29291C5.89464 4.48044 6 4.73478 6 5V9C6 9.26522 5.89464 9.51956 5.70711 9.70709C5.51957 9.89463 5.26522 10 5 10C4.73478 10 4.48043 9.89463 4.29289 9.70709C4.10536 9.51956 4 9.26522 4 9V5C4 4.73478 4.10536 4.48044 4.29289 4.29291C4.48043 4.10537 4.73478 4 5 4Z" fill="#F7BA8C"/>
<path opacity="0.5" fill-rule="evenodd" clip-rule="evenodd" d="M13 6.01099V4.98499H15.011V6.01099H13ZM12 6.01099H9.99998V4.98499H12V6.01099ZM6.99998 4.98499H8.99998V6.01099H6.99998V4.98499ZM4.01099 4.98499H5.99998V6.01099H4.01099V4.98499Z" fill="#D09889"/>
<path fill-rule="evenodd" clip-rule="evenodd" d="M17 11V16.931C16.4199 17.8681 15.6104 18.6418 14.648 19.1788C13.6856 19.7158 12.6021 19.9985 11.5 20H10.5C8.77609 20 7.1228 19.3152 5.90381 18.0962C4.68482 16.8772 4 15.2239 4 13.5V12.5C4.00778 11.9932 4.07833 11.4894 4.21001 11H17Z" fill="#F7BA8C"/>
<path d="M20 6H0V16H20V6Z" fill="#76A158"/>
<path d="M20 6H0V7H20V6Z" fill="#89AF6D"/>
<path opacity="0.7" d="M5.5 13C6.88071 13 8 11.8807 8 10.5C8 9.11929 6.88071 8 5.5 8C4.11929 8 3 9.11929 3 10.5C3 11.8807 4.11929 13 5.5 13Z" fill="#9FD17D"/>
<path fill-rule="evenodd" clip-rule="evenodd" d="M17 16V15H20V16H17ZM10.141 16H0V15H10C10 13.9391 10.4214 12.9217 11.1716 12.1716C11.9217 11.4214 12.9391 11 14 11V9C14 8.73478 14.1054 8.48044 14.2929 8.29291C14.4804 8.10537 14.7348 8 15 8C15.2652 8 15.5196 8.10537 15.7071 8.29291C15.8946 8.48044 16 8.73478 16 9V11.555C16.3726 11.7814 16.7062 12.0664 16.988 12.399V16H10.141Z" fill="#669248"/>
<path fill-rule="evenodd" clip-rule="evenodd" d="M17 15V16.937H11.316C11.0386 16.3677 10.924 15.7328 10.9849 15.1025C11.0458 14.4722 11.2798 13.8709 11.6611 13.3653C12.0423 12.8597 12.556 12.4693 13.1452 12.2373C13.7345 12.0054 14.3764 11.9409 15 12.051V9C15 8.73478 15.1054 8.48044 15.2929 8.29291C15.4804 8.10537 15.7348 8 16 8C16.2652 8 16.5196 8.10537 16.7071 8.29291C16.8947 8.48044 17 8.73478 17 9V15Z" fill="#F7BA8C"/>
<path d="M49.781 19C54.0783 19 57.562 15.4183 57.562 11C57.562 6.58172 54.0783 3 49.781 3C45.4837 3 42 6.58172 42 11C42 15.4183 45.4837 19 49.781 19Z" fill="#EC0020"/>
<path d="M62.219 18.781C66.5163 18.781 70 15.2973 70 11C70 6.70267 66.5163 3.21899 62.219 3.21899C57.9217 3.21899 54.438 6.70267 54.438 11C54.438 15.2973 57.9217 18.781 62.219 18.781Z" fill="#FE9A0C"/>
<path fill-rule="evenodd" clip-rule="evenodd" d="M47.412 12.968H46.724L47.353 9.73001H47.342L46.056 12.968H45.219L45.2 9.73001H45.189L44.678 12.968H43.99L44.744 8.991H45.819L45.866 12.091H45.878L47.097 8.991H48.161L47.412 12.968ZM52.592 10.748C52.2875 10.6915 51.9774 10.6707 51.668 10.686C51.295 10.728 51.214 10.832 51.19 10.952C51.105 11.398 52.802 10.97 52.596 12.002C52.5289 12.2997 52.358 12.5638 52.114 12.747C51.8699 12.9303 51.5686 13.0206 51.264 13.002C50.8919 13.0277 50.5184 12.9811 50.164 12.865L50.264 12.32C50.6102 12.3889 50.9631 12.4184 51.316 12.408C51.4285 12.4201 51.5421 12.3997 51.6433 12.3492C51.7445 12.2987 51.8291 12.2202 51.887 12.123C51.981 11.652 50.287 12.006 50.493 10.957C50.5599 10.6889 50.7243 10.4554 50.9541 10.3021C51.184 10.1488 51.4628 10.0867 51.736 10.128C52.0561 10.1316 52.3744 10.1763 52.683 10.261L52.59 10.752L52.592 10.748ZM52.981 10.616L53.233 9.56601H53.92L53.773 10.092H54.2L54.1 10.616H53.673L53.373 12.135C53.342 12.301 53.334 12.364 53.614 12.364C53.6623 12.3638 53.7105 12.3595 53.758 12.351L53.658 12.917C53.55 12.917 53.425 12.992 53.317 12.992H53.231C52.637 12.992 52.579 12.68 52.653 12.314L52.987 10.614L52.981 10.616ZM54.638 11.828C54.6116 11.902 54.6048 11.9817 54.6181 12.0591C54.6315 12.1366 54.6646 12.2093 54.7143 12.2702C54.7639 12.3311 54.8285 12.3782 54.9016 12.4069C54.9748 12.4356 55.0541 12.4449 55.132 12.434C55.5563 12.4623 55.9781 12.3498 56.332 12.114L56.223 12.639C55.8635 12.8815 55.4322 12.9943 55 12.959C54.266 12.959 53.773 12.58 54 11.432C54.0488 11.0532 54.2291 10.7035 54.5095 10.4441C54.7899 10.1847 55.1525 10.0322 55.534 10.013C56.05 10.013 56.711 10.422 56.454 11.699L56.431 11.828H54.631H54.638ZM55.819 11.283C55.8428 11.2121 55.8506 11.1369 55.8419 11.0627C55.8331 10.9884 55.808 10.9171 55.7682 10.8537C55.7285 10.7904 55.6753 10.7367 55.6123 10.6964C55.5493 10.6562 55.4781 10.6304 55.404 10.621C55.2383 10.6459 55.0852 10.7239 54.9676 10.8433C54.8501 10.9627 54.7744 11.1169 54.752 11.283H55.819ZM56.887 10.142H57.544L57.444 10.571H57.455C57.5325 10.4144 57.6498 10.2808 57.7951 10.1836C57.9404 10.0864 58.1086 10.0289 58.283 10.017C58.329 10.017 58.43 10.038 58.473 10.043L58.22 10.771C58.1714 10.7633 58.1222 10.7603 58.073 10.762C57.8834 10.7514 57.6972 10.815 57.5536 10.9393C57.4101 11.0636 57.3206 11.2389 57.304 11.428L57.016 12.994H56.329L56.884 10.142H56.887ZM61.039 9.84201C60.7802 9.69071 60.4747 9.64015 60.181 9.70001C59.8683 9.755 59.5843 9.91632 59.3769 10.1567C59.1695 10.397 59.0516 10.7017 59.043 11.019C58.9896 11.1396 58.9606 11.2696 58.9577 11.4015C58.9547 11.5334 58.9779 11.6645 59.0258 11.7874C59.0738 11.9103 59.1456 12.0224 59.2371 12.1175C59.3286 12.2125 59.438 12.2885 59.559 12.341C59.7536 12.3866 59.9555 12.3923 60.1524 12.358C60.3493 12.3236 60.5373 12.2498 60.705 12.141L60.519 12.827C60.3728 12.9248 60.2076 12.9906 60.0343 13.02C59.8609 13.0495 59.6833 13.042 59.513 12.998C58.573 12.94 58.033 12.316 58.293 11.01C58.3309 10.4894 58.5566 10.0003 58.9282 9.63364C59.2998 9.26702 59.7919 9.04787 60.313 9.017C60.4712 9.01532 60.6281 9.04574 60.7742 9.10641C60.9203 9.16709 61.0525 9.25675 61.163 9.37L61.039 9.845V9.84201ZM67.239 12.971H66.567L66.637 12.541H66.629C66.5329 12.6738 66.4062 12.7814 66.2596 12.8547C66.113 12.928 65.9509 12.9648 65.787 12.962C65.01 12.962 64.831 12.229 64.987 11.462C65.0097 11.098 65.16 10.7537 65.4115 10.4896C65.663 10.2254 65.9996 10.0585 66.362 10.018C66.506 10.0059 66.6499 10.0423 66.7708 10.1215C66.8917 10.2007 66.9826 10.3181 67.029 10.455H67.041L67.3 9H67.988L67.238 12.968L67.239 12.971ZM66.074 12.359C66.2756 12.337 66.4631 12.2448 66.6037 12.0986C66.7443 11.9523 66.8289 11.7613 66.843 11.559C66.932 11.11 66.901 10.659 66.431 10.659C66.2242 10.691 66.0354 10.7948 65.8976 10.9523C65.7599 11.1098 65.6821 11.3108 65.678 11.52C65.612 11.849 65.635 12.365 66.078 12.365L66.074 12.359ZM63.091 12.296C63.091 12.296 63.025 12.596 63.01 12.745L62.975 12.997H62.365C62.3515 12.851 62.3515 12.704 62.365 12.558C62.246 12.6836 62.1027 12.7839 61.9439 12.8526C61.7851 12.9213 61.6141 12.9572 61.441 12.958C61.3386 12.9687 61.2352 12.9531 61.1404 12.9128C61.0457 12.8724 60.9628 12.8087 60.8994 12.7274C60.8361 12.6462 60.7945 12.5503 60.7785 12.4485C60.7625 12.3468 60.7727 12.2427 60.808 12.146C60.8441 11.9141 60.9558 11.7007 61.1258 11.539C61.2959 11.3773 61.5146 11.2764 61.748 11.252L62.385 11.152C62.497 11.135 62.637 11.214 62.672 11.052C62.6814 10.9995 62.6778 10.9456 62.6614 10.8949C62.645 10.8442 62.6164 10.7983 62.578 10.7613C62.5396 10.7243 62.4927 10.6973 62.4414 10.6828C62.3902 10.6683 62.3361 10.6666 62.284 10.678C61.9241 10.665 61.5654 10.7273 61.231 10.861L61.387 10.316C61.7319 10.1616 62.1107 10.0985 62.487 10.133C62.6015 10.1068 62.7206 10.1084 62.8344 10.1378C62.9481 10.1672 63.0532 10.2234 63.1407 10.3018C63.2282 10.3801 63.2955 10.4784 63.3372 10.5882C63.3788 10.6981 63.3935 10.8163 63.38 10.933L63.096 12.29L63.091 12.296ZM62.552 11.526C62.3988 11.6131 62.2279 11.6644 62.052 11.676C61.9259 11.6726 61.8025 11.713 61.7027 11.7903C61.603 11.8676 61.5332 11.977 61.505 12.1C61.4895 12.1392 61.4842 12.1818 61.4898 12.2236C61.4953 12.2654 61.5115 12.3051 61.5368 12.3389C61.5621 12.3727 61.5956 12.3995 61.6341 12.4167C61.6727 12.4338 61.715 12.4408 61.757 12.437C61.9218 12.4381 62.0822 12.3843 62.2131 12.2842C62.344 12.1841 62.4379 12.0433 62.48 11.884L62.55 11.526H62.552ZM63.728 10.145H64.385L64.285 10.627H64.3C64.3771 10.4703 64.4942 10.3367 64.6393 10.2396C64.7845 10.1425 64.9527 10.0854 65.127 10.074C65.174 10.074 65.275 10.095 65.318 10.099L65.065 10.827C65.0164 10.8193 64.9672 10.8163 64.918 10.818C64.8272 10.8076 64.7353 10.8152 64.6475 10.8404C64.5596 10.8656 64.4776 10.9078 64.4062 10.9648C64.3347 11.0217 64.2752 11.0922 64.2311 11.1722C64.187 11.2522 64.1591 11.3402 64.149 11.431L63.861 12.997H63.174L63.729 10.145H63.728ZM50.012 12.296C50.012 12.296 49.946 12.596 49.93 12.745L49.895 12.998H49.285C49.272 12.8516 49.272 12.7044 49.285 12.558C49.1689 12.6901 49.0271 12.7972 48.8682 12.8727C48.7094 12.9482 48.5368 12.9905 48.361 12.997C48.2564 13.003 48.152 12.983 48.0571 12.9388C47.9621 12.8945 47.8796 12.8275 47.8169 12.7436C47.7542 12.6597 47.7133 12.5616 47.6978 12.458C47.6823 12.3544 47.6926 12.2486 47.728 12.15C47.7642 11.9182 47.876 11.7049 48.046 11.5432C48.216 11.3815 48.4347 11.2805 48.668 11.256L49.305 11.156C49.3704 11.1555 49.4338 11.1336 49.4856 11.0937C49.5374 11.0538 49.5748 10.9981 49.592 10.935C49.651 10.624 49.379 10.672 49.204 10.668C48.8445 10.6556 48.4862 10.7179 48.152 10.851L48.307 10.306C48.6505 10.1529 49.0274 10.0899 49.402 10.123C49.5165 10.0968 49.6356 10.0984 49.7494 10.1278C49.8631 10.1571 49.9682 10.2134 50.0557 10.2918C50.1432 10.3702 50.2105 10.4684 50.2522 10.5782C50.2938 10.6881 50.3085 10.8063 50.295 10.923L50.012 12.297V12.296ZM49.472 11.526C49.3188 11.6132 49.1479 11.6645 48.972 11.676C48.8457 11.6725 48.7222 11.7129 48.6223 11.7902C48.5224 11.8674 48.4524 11.9769 48.424 12.1C48.4084 12.1393 48.4031 12.182 48.4088 12.2239C48.4144 12.2658 48.4307 12.3056 48.4561 12.3394C48.4814 12.3732 48.5151 12.4 48.5538 12.4171C48.5925 12.4341 48.6349 12.441 48.677 12.437C48.8416 12.438 49.0019 12.3842 49.1327 12.2841C49.2634 12.184 49.3571 12.0432 49.399 11.884L49.469 11.526H49.472Z" fill="white"/>
<path fill-rule="evenodd" clip-rule="evenodd" d="M47.412 12.968H46.724L47.353 9.73001H47.342L46.056 12.968H45.219L45.2 9.73001H45.189L44.678 12.968H43.99L44.744 8.991H45.819L45.866 12.091H45.878L47.097 8.991H48.161L47.412 12.968ZM52.592 10.748C52.2875 10.6915 51.9774 10.6707 51.668 10.686C51.295 10.728 51.214 10.832 51.19 10.952C51.105 11.398 52.802 10.97 52.596 12.002C52.5289 12.2997 52.358 12.5638 52.114 12.747C51.8699 12.9303 51.5686 13.0206 51.264 13.002C50.8919 13.0277 50.5184 12.9811 50.164 12.865L50.264 12.32C50.6102 12.3889 50.9631 12.4184 51.316 12.408C51.4285 12.4201 51.5421 12.3997 51.6433 12.3492C51.7445 12.2987 51.8291 12.2202 51.887 12.123C51.981 11.652 50.287 12.006 50.493 10.957C50.5599 10.6889 50.7243 10.4554 50.9541 10.3021C51.184 10.1488 51.4628 10.0867 51.736 10.128C52.0561 10.1316 52.3744 10.1763 52.683 10.261L52.59 10.752L52.592 10.748ZM52.981 10.616L53.233 9.56601H53.92L53.773 10.092H54.2L54.1 10.616H53.673L53.373 12.135C53.342 12.301 53.334 12.364 53.614 12.364C53.6623 12.3638 53.7105 12.3595 53.758 12.351L53.658 12.917C53.55 12.917 53.425 12.992 53.317 12.992H53.231C52.637 12.992 52.579 12.68 52.653 12.314L52.987 10.614L52.981 10.616ZM54.638 11.828C54.6116 11.902 54.6048 11.9817 54.6181 12.0591C54.6315 12.1366 54.6646 12.2093 54.7143 12.2702C54.7639 12.3311 54.8285 12.3782 54.9016 12.4069C54.9748 12.4356 55.0541 12.4449 55.132 12.434C55.5563 12.4623 55.9781 12.3498 56.332 12.114L56.223 12.639C55.8635 12.8815 55.4322 12.9943 55 12.959C54.266 12.959 53.773 12.58 54 11.432C54.0488 11.0532 54.2291 10.7035 54.5095 10.4441C54.7899 10.1847 55.1525 10.0322 55.534 10.013C56.05 10.013 56.711 10.422 56.454 11.699L56.431 11.828H54.631H54.638ZM55.819 11.283C55.8428 11.2121 55.8506 11.1369 55.8419 11.0627C55.8331 10.9884 55.808 10.9171 55.7682 10.8537C55.7285 10.7904 55.6753 10.7367 55.6123 10.6964C55.5493 10.6562 55.4781 10.6304 55.404 10.621C55.2383 10.6459 55.0852 10.7239 54.9676 10.8433C54.8501 10.9627 54.7744 11.1169 54.752 11.283H55.819ZM56.887 10.142H57.544L57.444 10.571H57.455C57.5325 10.4144 57.6498 10.2808 57.7951 10.1836C57.9404 10.0864 58.1086 10.0289 58.283 10.017C58.329 10.017 58.43 10.038 58.473 10.043L58.22 10.771C58.1714 10.7633 58.1222 10.7603 58.073 10.762C57.8834 10.7514 57.6972 10.815 57.5536 10.9393C57.4101 11.0636 57.3206 11.2389 57.304 11.428L57.016 12.994H56.329L56.884 10.142H56.887ZM61.039 9.84201C60.7802 9.69071 60.4747 9.64015 60.181 9.70001C59.8683 9.755 59.5843 9.91632 59.3769 10.1567C59.1695 10.397 59.0516 10.7017 59.043 11.019C58.9896 11.1396 58.9606 11.2696 58.9577 11.4015C58.9547 11.5334 58.9779 11.6645 59.0258 11.7874C59.0738 11.9103 59.1456 12.0224 59.2371 12.1175C59.3286 12.2125 59.438 12.2885 59.559 12.341C59.7536 12.3866 59.9555 12.3923 60.1524 12.358C60.3493 12.3236 60.5373 12.2498 60.705 12.141L60.519 12.827C60.3728 12.9248 60.2076 12.9906 60.0343 13.02C59.8609 13.0495 59.6833 13.042 59.513 12.998C58.573 12.94 58.033 12.316 58.293 11.01C58.3309 10.4894 58.5566 10.0003 58.9282 9.63364C59.2998 9.26702 59.7919 9.04787 60.313 9.017C60.4712 9.01532 60.6281 9.04574 60.7742 9.10641C60.9203 9.16709 61.0525 9.25675 61.163 9.37L61.039 9.845V9.84201ZM67.239 12.971H66.567L66.637 12.541H66.629C66.5329 12.6738 66.4062 12.7814 66.2596 12.8547C66.113 12.928 65.9509 12.9648 65.787 12.962C65.01 12.962 64.831 12.229 64.987 11.462C65.0097 11.098 65.16 10.7537 65.4115 10.4896C65.663 10.2254 65.9996 10.0585 66.362 10.018C66.506 10.0059 66.6499 10.0423 66.7708 10.1215C66.8917 10.2007 66.9826 10.3181 67.029 10.455H67.041L67.3 9H67.988L67.238 12.968L67.239 12.971ZM66.074 12.359C66.2756 12.337 66.4631 12.2448 66.6037 12.0986C66.7443 11.9523 66.8289 11.7613 66.843 11.559C66.932 11.11 66.901 10.659 66.431 10.659C66.2242 10.691 66.0354 10.7948 65.8976 10.9523C65.7599 11.1098 65.6821 11.3108 65.678 11.52C65.612 11.849 65.635 12.365 66.078 12.365L66.074 12.359ZM63.091 12.296C63.091 12.296 63.025 12.596 63.01 12.745L62.975 12.997H62.365C62.3515 12.851 62.3515 12.704 62.365 12.558C62.246 12.6836 62.1027 12.7839 61.9439 12.8526C61.7851 12.9213 61.6141 12.9572 61.441 12.958C61.3386 12.9687 61.2352 12.9531 61.1404 12.9128C61.0457 12.8724 60.9628 12.8087 60.8994 12.7274C60.8361 12.6462 60.7945 12.5503 60.7785 12.4485C60.7625 12.3468 60.7727 12.2427 60.808 12.146C60.8441 11.9141 60.9558 11.7007 61.1258 11.539C61.2959 11.3773 61.5146 11.2764 61.748 11.252L62.385 11.152C62.497 11.135 62.637 11.214 62.672 11.052C62.6814 10.9995 62.6778 10.9456 62.6614 10.8949C62.645 10.8442 62.6164 10.7983 62.578 10.7613C62.5396 10.7243 62.4927 10.6973 62.4414 10.6828C62.3902 10.6683 62.3361 10.6666 62.284 10.678C61.9241 10.665 61.5654 10.7273 61.231 10.861L61.387 10.316C61.7319 10.1616 62.1107 10.0985 62.487 10.133C62.6015 10.1068 62.7206 10.1084 62.8344 10.1378C62.9481 10.1672 63.0532 10.2234 63.1407 10.3018C63.2282 10.3801 63.2955 10.4784 63.3372 10.5882C63.3788 10.6981 63.3935 10.8163 63.38 10.933L63.096 12.29L63.091 12.296ZM62.552 11.526C62.3988 11.6131 62.2279 11.6644 62.052 11.676C61.9259 11.6726 61.8025 11.713 61.7027 11.7903C61.603 11.8676 61.5332 11.977 61.505 12.1C61.4895 12.1392 61.4842 12.1818 61.4898 12.2236C61.4953 12.2654 61.5115 12.3051 61.5368 12.3389C61.5621 12.3727 61.5956 12.3995 61.6341 12.4167C61.6727 12.4338 61.715 12.4408 61.757 12.437C61.9218 12.4381 62.0822 12.3843 62.2131 12.2842C62.344 12.1841 62.4379 12.0433 62.48 11.884L62.55 11.526H62.552ZM63.728 10.145H64.385L64.285 10.627H64.3C64.3771 10.4703 64.4942 10.3367 64.6393 10.2396C64.7845 10.1425 64.9527 10.0854 65.127 10.074C65.174 10.074 65.275 10.095 65.318 10.099L65.065 10.827C65.0164 10.8193 64.9672 10.8163 64.918 10.818C64.8272 10.8076 64.7353 10.8152 64.6475 10.8404C64.5596 10.8656 64.4776 10.9078 64.4062 10.9648C64.3347 11.0217 64.2752 11.0922 64.2311 11.1722C64.187 11.2522 64.1591 11.3402 64.149 11.431L63.861 12.997H63.174L63.729 10.145H63.728ZM50.012 12.296C50.012 12.296 49.946 12.596 49.93 12.745L49.895 12.998H49.285C49.272 12.8516 49.272 12.7044 49.285 12.558C49.1689 12.6901 49.0271 12.7972 48.8682 12.8727C48.7094 12.9482 48.5368 12.9905 48.361 12.997C48.2564 13.003 48.152 12.983 48.0571 12.9388C47.9621 12.8945 47.8796 12.8275 47.8169 12.7436C47.7542 12.6597 47.7133 12.5616 47.6978 12.458C47.6823 12.3544 47.6926 12.2486 47.728 12.15C47.7642 11.9182 47.876 11.7049 48.046 11.5432C48.216 11.3815 48.4347 11.2805 48.668 11.256L49.305 11.156C49.3704 11.1555 49.4338 11.1336 49.4856 11.0937C49.5374 11.0538 49.5748 10.9981 49.592 10.935C49.651 10.624 49.379 10.672 49.204 10.668C48.8445 10.6556 48.4862 10.7179 48.152 10.851L48.307 10.306C48.6505 10.1529 49.0274 10.0899 49.402 10.123C49.5165 10.0968 49.6356 10.0984 49.7494 10.1278C49.8631 10.1571 49.9682 10.2134 50.0557 10.2918C50.1432 10.3702 50.2105 10.4684 50.2522 10.5782C50.2938 10.6881 50.3085 10.8063 50.295 10.923L50.012 12.297V12.296ZM49.472 11.526C49.3188 11.6132 49.1479 11.6645 48.972 11.676C48.8457 11.6725 48.7222 11.7129 48.6223 11.7902C48.5224 11.8674 48.4524 11.9769 48.424 12.1C48.4084 12.1393 48.4031 12.182 48.4088 12.2239C48.4144 12.2658 48.4307 12.3056 48.4561 12.3394C48.4814 12.3732 48.5151 12.4 48.5538 12.4171C48.5925 12.4341 48.6349 12.441 48.677 12.437C48.8416 12.438 49.0019 12.3842 49.1327 12.2841C49.2634 12.184 49.3571 12.0432 49.399 11.884L49.469 11.526H49.472Z" fill="white"/>
<path d="M157.975 8.04721C157.884 7.4271 157.446 7.00827 156.813 7C156.369 6.99249 155.763 7 155.768 7.611C155.786 9.3473 155.776 11.1511 155.77 12.8824C155.766 13.7903 155.023 14.7229 154.13 14.9594C151.358 15.6853 148.588 16.4228 145.812 17.1421C145.5 17.2232 145.172 17.2645 144.854 17.2612C144.716 17.2612 144.525 17.1355 144.465 17.0132C144.426 16.9321 144.548 16.7354 144.644 16.6345C144.77 16.5121 144.931 16.4146 145.096 16.3468C145.604 16.1301 146.122 15.9333 146.636 15.73C148.695 14.9131 150.501 14.1061 152.557 13.2842C153.484 12.9105 153.985 12.173 154 11.242C154.047 8.2258 154.024 5.20959 154.012 2.19006C154.012 1.71217 153.805 1.31364 153.328 1.10694C152.779 0.872123 152.296 1.05898 151.819 1.33018C148.905 2.98877 146.249 4.64405 143.332 6.29933C142.474 6.78715 141.996 7.49324 142 8.49865C142.01 11.3512 142.003 14.1987 142.006 17.0479C142.006 17.1901 142.018 17.3356 142.055 17.4712C142.342 18.4402 143.087 18.9959 144.116 18.9959C146.166 19.0025 148.223 18.9992 150.275 18.9992C152.32 18.9992 154.358 19.0025 156.402 18.9959C156.846 18.9959 157.255 18.8867 157.588 18.5593C158.019 18.1459 157.997 17.62 157.997 17.0958C158.001 14.3178 158.001 11.3611 157.998 8.57802C158.002 8.40439 157.999 8.22249 157.975 8.04721ZM149.449 7.3378C149.655 6.69785 150.106 6.29767 150.793 6.19515C151.248 6.12569 151.645 6.46138 151.71 6.95085C151.808 7.70491 151.018 8.58133 150.237 8.57802C149.586 8.57802 149.223 8.03398 149.449 7.3378Z" fill="#FF7D00"/>
<path fill-rule="evenodd" clip-rule="evenodd" d="M348.01 15.0003V9.65525H347.766L346.026 15.0003H343.96H343.954L342.218 9.65525H341.976V15.0003H339V6.00025H341.976C342.343 5.99556 342.702 6.10806 343 6.32136C343.299 6.53466 343.522 6.83765 343.636 7.18626L344.859 11.3463H345.116L346.341 7.18626C346.456 6.83633 346.68 6.53244 346.981 6.31904C347.281 6.10564 347.642 5.99394 348.01 6.00025H350.986V15.0003H348.01Z" fill="#52B461"/>
<path fill-rule="evenodd" clip-rule="evenodd" d="M358.978 15.0002V9.65524H358.751L356.87 14.1403C356.754 14.3967 356.567 14.6142 356.331 14.7668C356.095 14.9194 355.819 15.0004 355.538 15.0002H353.013V6.00024H356.013V11.3452H356.251L358.156 6.85526L358.171 6.82126C358.291 6.57595 358.478 6.36931 358.71 6.22488C358.942 6.08045 359.21 6.00401 359.483 6.00424H362.008V15.0042H358.98L358.978 15.0002Z" fill="#52B461"/>
<path fill-rule="evenodd" clip-rule="evenodd" d="M370.547 12.0143H367.019V15.0002H364.019V9.99326H373.972C373.663 10.6293 373.173 11.1602 372.564 11.5196C371.955 11.879 371.253 12.0511 370.547 12.0143Z" fill="#52B461"/>
<path fill-rule="evenodd" clip-rule="evenodd" d="M373.919 9.00626H368.507C366.035 9.00626 363.979 7.70624 363.546 6.00024H370.569C372.459 6.00024 373.991 7.11723 373.991 8.49423C373.991 8.66741 373.967 8.83974 373.919 9.00626Z" fill="url(#paint0_linear)"/>
<path fill-rule="evenodd" clip-rule="evenodd" d="M410 19C414.971 19 419 14.971 419 10C419 5.029 414.971 1 410 1C405.029 1 401 5.029 401 10C401 14.971 405.029 19 410 19ZM410 13.5C411.933 13.5 413.5 11.933 413.5 10C413.5 8.067 411.933 6.5 410 6.5C408.067 6.5 406.5 8.067 406.5 10C406.5 11.933 408.067 13.5 410 13.5Z" fill="#8A42F9"/>
<path d="M401 4H394L397.733 16H401V4Z" fill="#8A42F9"/>
<path fill-rule="evenodd" clip-rule="evenodd" d="M455 19C459.971 19 464 14.971 464 10C464 5.029 459.971 1 455 1C450.029 1 446 5.029 446 10C446 14.971 450.029 19 455 19ZM455 13.5C456.933 13.5 458.5 11.933 458.5 10C458.5 8.067 456.933 6.5 455 6.5C453.067 6.5 451.5 8.067 451.5 10C451.5 11.933 453.067 13.5 455 13.5Z" fill="#0F72ED"/>
<path d="M446 4H439L442.733 16H446V4Z" fill="#0F72ED"/>
<mask id="mask0" mask-type="alpha" maskUnits="userSpaceOnUse" x="265" y="1" width="19" height="19">
<path fill-rule="evenodd" clip-rule="evenodd" d="M281.996 10.24C281.999 10.327 282 10.413 282 10.5C282 14.642 278.642 18 274.5 18C270.358 18 267 14.642 267 10.5C267 6.358 270.358 3 274.5 3C276.024 3 277.441 3.454 278.624 4.235L280.257 2.942C278.66 1.724 276.664 1 274.5 1C269.253 1 265 5.253 265 10.5C265 15.747 269.253 20 274.5 20C279.747 20 284 15.747 284 10.5C284 9.913 283.947 9.338 283.845 8.78L281.996 10.24Z" fill="#C4C4C4"/>
</mask>
<g mask="url(#mask0)">
<path d="M281.994 10.203C281.998 10.302 282 10.401 282 10.5C282 14.642 278.642 18 274.5 18C270.358 18 267 14.642 267 10.5C267 6.358 270.358 3 274.5 3C276.024 3 277.441 3.454 278.624 4.235L280.257 2.942C278.66 1.724 276.664 1 274.5 1C269.253 1 265 5.253 265 10.5C265 15.747 269.253 20 274.5 20C279.747 20 284 15.747 284 10.5C284 9.895 283.943 9.303 283.835 8.729L281.994 10.203Z" fill="#24A236"/>
<path d="M273.404 9.03883C278.045 9.03883 281.808 5.2763 281.808 0.634979C281.808 -4.00634 278.045 -7.76886 273.404 -7.76886C268.763 -7.76886 265 -4.00634 265 0.634979C265 5.2763 268.763 9.03883 273.404 9.03883Z" fill="#008ACB"/>
<g filter="url(#filter0_f)">
<path d="M272.308 28.0387C276.344 28.0387 279.616 24.767 279.616 20.731C279.616 16.6951 276.344 13.4233 272.308 13.4233C268.272 13.4233 265 16.6951 265 20.731C265 24.767 268.272 28.0387 272.308 28.0387Z" fill="#77F628"/>
</g>
<g filter="url(#filter1_f)">
<path d="M265.731 14.1537C269.767 14.1537 273.039 10.8819 273.039 6.84601C273.039 2.81008 269.767 -0.46167 265.731 -0.46167C261.695 -0.46167 258.423 2.81008 258.423 6.84601C258.423 10.8819 261.695 14.1537 265.731 14.1537Z" fill="#19E7E8"/>
</g>
<g filter="url(#filter2_f)">
<path d="M265 20.0002C268.229 20.0002 270.846 17.3828 270.846 14.154C270.846 10.9253 268.229 8.30786 265 8.30786C261.771 8.30786 259.154 10.9253 259.154 14.154C259.154 17.3828 261.771 20.0002 265 20.0002Z" fill="#DEFA1B"/>
</g>
</g>
<path d="M274.5 13L283.049 6.35098C282.757 5.75198 282.405 5.18799 281.999 4.66699L274.5 10.5L271 8.31299V10.805L274.5 13Z" fill="#24A236"/>
<path d="M541 1H484V19H541V1Z" fill="#FFDD2D"/>
<path d="M495.871 12.8214V8.66665H498.111V7.15475H492V8.66665H494.24V12.8214H495.871ZM500.394 7.15475H498.763V12.8214H500.394V7.15475ZM501.588 7.15475V12.8214H503.088V9.69044L505.883 12.8214H507.275V7.15475H505.774V10.2619L503.045 7.15475H501.588ZM510.48 10.6786L512.361 12.8214H514.46L511.839 9.86904L514.362 7.15475H512.383L510.48 9.28567H510.045V7.15475H508.469V12.8214H510.045V10.6786H510.48ZM517.704 7C515.584 7 514.311 8.30952 514.311 10C514.311 11.6904 515.584 13 517.704 13C519.813 13 521.085 11.6904 521.085 10C521.085 8.30952 519.813 7 517.704 7ZM517.704 11.619C516.649 11.619 515.975 10.9285 515.975 10C515.975 9.07142 516.649 8.39286 517.704 8.39286C518.748 8.39286 519.433 9.07142 519.433 10C519.433 10.9285 518.748 11.619 517.704 11.619ZM527.064 7.15475H521.834V12.8214H523.411V10.8452H526.836V9.59518H523.411V8.59528H527.064V7.15475ZM533 7.15475H527.77V12.8214H529.347V10.8452H532.772V9.59518H529.347V8.59528H533V7.15475Z" fill="black"/>
<defs>
<filter id="filter0_f" x="257" y="5.42334" width="30.6154" height="30.6154" filterUnits="userSpaceOnUse" color-interpolation-filters="sRGB">
<feFlood flood-opacity="0" result="BackgroundImageFix"/>
<feBlend mode="normal" in="SourceGraphic" in2="BackgroundImageFix" result="shape"/>
<feGaussianBlur stdDeviation="4" result="effect1_foregroundBlur"/>
</filter>
<filter id="filter1_f" x="250.423" y="-8.46167" width="30.6154" height="30.6154" filterUnits="userSpaceOnUse" color-interpolation-filters="sRGB">
<feFlood flood-opacity="0" result="BackgroundImageFix"/>
<feBlend mode="normal" in="SourceGraphic" in2="BackgroundImageFix" result="shape"/>
<feGaussianBlur stdDeviation="4" result="effect1_foregroundBlur"/>
</filter>
<filter id="filter2_f" x="253.154" y="2.30786" width="23.6923" height="23.6923" filterUnits="userSpaceOnUse" color-interpolation-filters="sRGB">
<feFlood flood-opacity="0" result="BackgroundImageFix"/>
<feBlend mode="normal" in="SourceGraphic" in2="BackgroundImageFix" result="shape"/>
<feGaussianBlur stdDeviation="3" result="effect1_foregroundBlur"/>
</filter>
<linearGradient id="paint0_linear" x1="374" y1="7.50025" x2="363.531" y2="7.50025" gradientUnits="userSpaceOnUse">
<stop stop-color="#198ECA"/>
<stop offset="1" stop-color="#1DB5E4"/>
</linearGradient>
</defs>
</svg>
