<svg width="13" height="15" viewBox="0 0 13 15" fill="none" xmlns="http://www.w3.org/2000/svg">
<path fill-rule="evenodd" clip-rule="evenodd" d="M13 7C13.0018 7.06298 12.9972 7.12599 12.986 7.188C12.9705 7.25703 12.9474 7.3241 12.917 7.388C12.9059 7.42787 12.8922 7.46696 12.876 7.505C12.865 7.52301 12.846 7.533 12.834 7.55C12.7934 7.60438 12.7471 7.65433 12.696 7.69901C12.6484 7.74838 12.5958 7.79261 12.539 7.83099C12.5237 7.84516 12.5077 7.85852 12.491 7.871L1.574 13.871C1.41958 13.9511 1.24795 13.9923 1.074 13.991C1.05 13.991 1.029 14.005 1.004 14.005C0.957018 13.9992 0.910548 13.9899 0.865 13.977C0.818106 13.9707 0.771674 13.9614 0.726 13.949C0.637037 13.9226 0.552459 13.8831 0.474998 13.832C0.440126 13.8128 0.406705 13.7911 0.375 13.767C0.29365 13.68 0.212649 13.5927 0.132 13.505C0.119 13.484 0.119 13.46 0.108 13.438C0.0887047 13.3939 0.0726615 13.3484 0.0599995 13.302C0.0287848 13.2155 0.0105856 13.1249 0.00599861 13.033C0.00599861 13.023 0 13.015 0 13.005V1C0 0.99 0.00499861 0.982 0.00599861 0.972C0.0105856 0.880155 0.0287848 0.789503 0.0599995 0.703003C0.0726615 0.65656 0.0887047 0.611103 0.108 0.567001C0.119 0.545001 0.119 0.521 0.132 0.5C0.212649 0.412342 0.29365 0.325014 0.375 0.238007C0.406705 0.213933 0.440126 0.192206 0.474998 0.173004C0.552459 0.121877 0.637037 0.0824488 0.726 0.0559998C0.771674 0.0436512 0.818106 0.0342981 0.865 0.0279999C0.911856 0.0149208 0.959671 0.0055585 1.008 0C1.033 0 1.054 0.0120076 1.078 0.0140076C1.25195 0.0127307 1.42358 0.0539174 1.578 0.134003L12.495 6.134C12.5117 6.14648 12.5277 6.15983 12.543 6.174C12.5998 6.21238 12.6524 6.25663 12.7 6.306C12.7511 6.35068 12.7974 6.40062 12.838 6.455C12.85 6.472 12.869 6.482 12.88 6.5C12.8962 6.53805 12.9099 6.57714 12.921 6.617C12.9514 6.6809 12.9745 6.74798 12.99 6.817C12.9995 6.87751 13.0028 6.93882 13 7ZM9.865 7L2.008 2.68201V11.318L9.865 7Z" fill="#222222"/>
</svg>