<svg width="21" height="16" viewBox="0 0 21 16" fill="none" xmlns="http://www.w3.org/2000/svg">
<path fill-rule="evenodd" clip-rule="evenodd" d="M19.2677 8.776C18.9927 8.43174 18.6462 8.15133 18.2522 7.95415C17.8582 7.75697 17.426 7.64774 16.9857 7.634C17.0783 6.73922 17.4253 5.88971 17.9857 5.186C18.5339 4.45208 19.2677 3.8774 20.1117 3.521L18.1107 0C17.3969 0.280083 16.707 0.61752 16.0477 1.009C15.1929 1.51664 14.4226 2.15466 13.7647 2.9C12.9754 3.80066 12.3414 4.82632 11.8887 5.935C11.3316 7.34687 11.0656 8.85676 11.1067 10.374C11.0325 11.8486 11.4994 13.2994 12.4197 14.454C12.8693 14.9668 13.4291 15.3712 14.0573 15.6369C14.6854 15.9025 15.3655 16.0226 16.0467 15.988C17.1685 16.0212 18.2583 15.6109 19.0797 14.846C19.4873 14.4561 19.8069 13.9836 20.0171 13.4602C20.2274 12.9368 20.3233 12.3745 20.2987 11.811C20.3531 10.7051 19.9845 9.61991 19.2677 8.776ZM8.16766 8.776C7.89269 8.43174 7.54621 8.15133 7.1522 7.95415C6.75819 7.75697 6.32605 7.64774 5.88566 7.634C5.97828 6.73922 6.32531 5.88971 6.88566 5.186C7.43437 4.45235 8.16852 3.87801 9.01266 3.522L7.01066 0C6.29688 0.280083 5.60696 0.61752 4.94766 1.009C4.09286 1.51663 3.32257 2.15465 2.66466 2.9C1.8752 3.80126 1.24121 4.82761 0.788665 5.937C0.231929 7.34894 -0.0337213 8.85883 0.0076645 10.376C-0.0665621 11.8506 0.40036 13.3015 1.32066 14.456C1.77038 14.9686 2.33028 15.3728 2.95841 15.6383C3.58654 15.9038 4.26661 16.0237 4.94766 15.989C6.06954 16.0222 7.15931 15.6119 7.98066 14.847C8.38828 14.4571 8.70791 13.9846 8.91814 13.4612C9.12837 12.9378 9.22435 12.3755 9.19967 11.812C9.25411 10.7056 8.8851 9.62002 8.16766 8.776Z" fill="#D3D3D3"/>
</svg>
